<svg width="92" height="46" viewBox="0 0 92 46" fill="none" xmlns="http://www.w3.org/2000/svg">
<g clip-path="url(#clip0)">
<path d="M19.4041 10.7875C19.5426 10.672 19.7599 10.672 19.8984 10.7875L20.63 11.4993C20.7685 11.6341 20.7685 11.8455 20.63 11.9803L19.4041 13.1545C19.2457 13.2886 18.9688 13.404 18.7713 13.404H16.3388C16.1406 13.404 15.8445 13.3079 15.706 13.1731L14.1832 11.8262C14.0249 11.7108 13.9062 11.4412 13.9062 11.2491V2.06984C13.9062 1.87772 14.0249 1.60818 14.1832 1.49277L15.6861 0.165156C15.8445 0.0303898 16.1207 -0.0656738 16.3189 -0.0656738H18.7713C18.9688 -0.0656738 19.2457 0.0490497 19.4041 0.183815L20.63 1.358C20.7685 1.49277 20.7685 1.7236 20.63 1.85836L19.8984 2.55085C19.7599 2.68562 19.5426 2.68562 19.4041 2.55085L18.6719 1.85836C18.5334 1.7236 18.2564 1.60818 18.0589 1.60818H16.9318C16.7344 1.60818 16.4574 1.7236 16.3189 1.85836L15.9034 2.24331C15.7649 2.37808 15.6463 2.64761 15.6463 2.83973V10.4792C15.6463 10.672 15.7649 10.9409 15.9034 11.0756L16.3189 11.4799C16.4574 11.6147 16.7344 11.7301 16.9318 11.7301H18.0589C18.2564 11.7301 18.5334 11.6341 18.6719 11.4993" fill="#F15C22"/>
<path d="M28.0044 2.85909C28.0044 2.66627 27.8858 2.39743 27.7473 2.26266L27.3319 1.85836C27.1934 1.7236 26.9171 1.60818 26.7189 1.60818H24.8802C24.682 1.60818 24.5044 1.7623 24.5044 1.95443V5.4763C24.5044 5.66843 24.682 5.82255 24.8802 5.82255H26.7189C26.9171 5.82255 27.1934 5.70713 27.3319 5.57237L27.7672 5.14872C27.9057 5.01465 28.0044 4.74511 28.0044 4.5523V2.85909ZM27.53 -0.0656738C27.7275 -0.0656738 28.0044 0.0497408 28.1231 0.183815L29.5073 1.64689C29.6458 1.801 29.7644 2.06984 29.7644 2.26266V5.4763C29.7644 5.66843 29.6458 5.93796 29.5073 6.07273L29.1316 6.41897C28.9931 6.55374 28.9931 6.76522 29.1316 6.89998L29.5073 7.26558C29.6458 7.40034 29.7644 7.66987 29.7644 7.862V13.0577C29.7644 13.2506 29.5861 13.4047 29.3887 13.4047H28.3603C28.1628 13.4047 28.0044 13.2506 28.0044 13.0577V8.74731C28.0044 8.55518 27.8858 8.305 27.7473 8.17023L27.3319 7.74659C27.1934 7.61251 27.0755 7.49641 27.0755 7.49641H24.8802C24.682 7.49641 24.5044 7.66987 24.5044 7.862V13.0577C24.5044 13.2506 24.3461 13.4047 24.1479 13.4047H23.1394C22.9419 13.4047 22.7637 13.2506 22.7637 13.0577V0.28057C22.7637 0.0877516 22.9419 -0.0656738 23.1394 -0.0656738" fill="#F15C22"/>
<path d="M34.2544 10.4405C34.2544 10.6333 34.373 10.9029 34.5115 11.0376L34.9064 11.4606C35.0449 11.5954 35.3219 11.7108 35.5201 11.7108H37.2005C37.3986 11.7108 37.6756 11.5954 37.8141 11.4606L38.2289 11.0563C38.3674 10.9215 38.486 10.6527 38.486 10.4599V2.87844C38.486 2.68631 38.3674 2.41678 38.2289 2.28201L37.8141 1.87772C37.6756 1.7236 37.4185 1.62754 37.2203 1.62754H35.5392C35.3418 1.62754 35.0648 1.7236 34.9263 1.85836L34.5115 2.28201C34.373 2.41678 34.2544 2.68631 34.2544 2.87844V10.4405ZM40.2267 11.2298C40.2267 11.4219 40.1081 11.6921 39.9498 11.8262L38.4462 13.1545C38.2885 13.2886 38.0705 13.404 37.9519 13.404H34.9263C34.7289 13.404 34.432 13.2886 34.2935 13.1545L32.7708 11.8262C32.633 11.6921 32.5137 11.4219 32.5137 11.2298V2.08919C32.5137 1.89707 32.633 1.62754 32.7708 1.49277L34.2935 0.165156C34.432 0.0303898 34.7289 -0.0656738 34.9263 -0.0656738H37.7942C38.0115 -0.0656738 38.2885 0.0303898 38.4462 0.165156L39.9498 1.49277C40.1081 1.62754 40.2267 1.89707 40.2267 2.08919" fill="#F15C22"/>
<path d="M49.1053 11.3839C49.1053 11.576 48.9867 11.8455 48.8482 11.9803L47.6223 13.1545C47.4831 13.2886 47.2068 13.404 47.0087 13.404H44.2601C44.062 13.404 43.7857 13.2886 43.6472 13.1545L42.4007 11.9609C42.2623 11.8262 42.2623 11.6147 42.4007 11.4799L43.133 10.7875C43.2708 10.6527 43.5087 10.6527 43.6472 10.7875L44.3588 11.4799C44.4973 11.6147 44.7743 11.7301 44.9718 11.7301H46.297C46.4945 11.7301 46.7715 11.6147 46.91 11.4799L47.1074 11.2878C47.2466 11.1524 47.3645 10.8835 47.3645 10.6907V9.95951C47.3645 9.76738 47.2466 9.49785 47.1074 9.36308L42.6188 4.64836C42.4803 4.51359 42.3617 4.24475 42.3617 4.05193V1.93508C42.3617 1.7623 42.4803 1.49277 42.6188 1.358L43.8645 0.165156C44.003 0.0303898 44.28 -0.0656738 44.4774 -0.0656738H47.226C47.4242 -0.0656738 47.7012 0.0303898 47.8389 0.165156L49.0854 1.358C49.2239 1.49277 49.2239 1.70425 49.0854 1.83901L48.3539 2.5315C48.2154 2.66627 47.9781 2.66627 47.8389 2.5315L47.1273 1.83901C46.9689 1.70425 46.6926 1.60818 46.4945 1.60818H45.1891C44.9916 1.60818 44.7147 1.70425 44.5769 1.83901L44.3787 2.05049C44.2203 2.18526 44.1216 2.45479 44.1216 2.64761V3.35945C44.1216 3.55157 44.2203 3.82111 44.3787 3.95587L48.8482 8.67059C48.9867 8.80536 49.1053 9.09355 49.1053 9.28637" fill="#F15C22"/>
<path d="M57.7459 11.3839C57.7459 11.576 57.6273 11.8455 57.4888 11.9803L56.2623 13.1545C56.1245 13.2886 55.8475 13.404 55.6493 13.404H52.9C52.7026 13.404 52.4256 13.2886 52.2878 13.1545L51.0414 11.9609C50.9029 11.8262 50.9029 11.6147 51.0414 11.4799L51.7736 10.7875C51.9121 10.6527 52.1493 10.6527 52.2878 10.7875L52.9995 11.4799C53.138 11.6147 53.415 11.7301 53.6124 11.7301H54.9377C55.1351 11.7301 55.4121 11.6147 55.5506 11.4799L55.7481 11.2878C55.8865 11.1524 56.0052 10.8835 56.0052 10.6907V9.95951C56.0052 9.76738 55.8865 9.49785 55.7481 9.36308L51.2594 4.64836C51.1209 4.51359 51.0023 4.24475 51.0023 4.05193V1.93508C51.0023 1.7623 51.1209 1.49277 51.2594 1.358L52.5052 0.165156C52.6436 0.0303898 52.9206 -0.0656738 53.1181 -0.0656738H55.8667C56.0648 -0.0656738 56.3418 0.0303898 56.4803 0.165156L57.726 1.358C57.8645 1.49277 57.8645 1.70425 57.726 1.83901L56.9945 2.5315C56.856 2.66627 56.6181 2.66627 56.4803 2.5315L55.7679 1.83901C55.6096 1.70425 55.3333 1.60818 55.1351 1.60818H53.8297C53.6323 1.60818 53.356 1.70425 53.2168 1.83901L53.0194 2.05049C52.861 2.18526 52.7623 2.45479 52.7623 2.64761V3.35945C52.7623 3.55157 52.861 3.82111 53.0194 3.95587L57.4888 8.67059C57.6273 8.80536 57.7459 9.09355 57.7459 9.28637" fill="#F15C22"/>
<path d="M65.2796 7.15016C65.2796 7.34298 65.122 7.49641 64.9245 7.49641H62.2541C62.0566 7.49641 61.8983 7.65052 61.8983 7.82399V13.0577C61.8983 13.2506 61.7399 13.404 61.5424 13.404H60.514C60.3166 13.404 60.1582 13.2506 60.1582 13.0577V0.28057C60.1582 0.0877516 60.3166 -0.0656738 60.514 -0.0656738H64.9245C65.122 -0.0656738 65.2796 0.0877516 65.2796 0.28057V1.24259C65.2796 1.43472 65.122 1.56948 64.9245 1.56948H62.2541C62.0566 1.56948 61.8983 1.7236 61.8983 1.91573V5.49496C61.8983 5.68778 62.0566 5.8419 62.2541 5.8419H64.9245C65.122 5.8419 65.2796 5.99602 65.2796 6.18814" fill="#F15C22"/>
<path d="M67.416 0.28057C67.416 0.0877516 67.5737 -0.0656738 67.7718 -0.0656738H68.8003C68.9977 -0.0656738 69.1561 0.0877516 69.1561 0.28057V13.0577C69.1561 13.2506 68.9977 13.4047 68.8003 13.4047H67.7718C67.5737 13.4047 67.416 13.2506 67.416 13.0577" fill="#F15C22"/>
<path d="M71.1113 0.28057C71.1113 0.0877516 71.269 -0.0656738 71.4672 -0.0656738H77.7165C77.9139 -0.0656738 78.0723 0.0877516 78.0723 0.28057V1.26194C78.0723 1.45407 77.9139 1.60818 77.7165 1.60818H75.818C75.6206 1.60818 75.4622 1.7623 75.4622 1.95443V13.0577C75.4622 13.2506 75.3038 13.4047 75.1057 13.4047H74.078C73.8798 13.4047 73.7214 13.2506 73.7214 13.0577V1.95443C73.7214 1.7623 73.563 1.60818 73.3656 1.60818H71.4672C71.269 1.60818 71.1113 1.45407 71.1113 1.26194" fill="#F15C22"/>
<path d="M9.4059 24.5246C9.40661 24.1638 9.19354 23.6655 8.94425 23.4188C8.64595 23.123 8.49681 22.9751 8.1978 22.68C7.94922 22.434 7.45135 22.2266 7.09553 22.2308C5.77166 22.2467 5.11044 22.255 3.78658 22.2729C3.43075 22.2778 3.11044 22.5736 3.11044 22.9412C3.10973 25.2668 3.10902 27.5931 3.10831 29.9186C3.10831 30.3091 3.42791 30.5987 3.78303 30.5731C5.10547 30.4771 5.76669 30.4314 7.08985 30.3437C7.44567 30.3195 7.94354 30.061 8.19283 29.7825C8.50604 29.4335 8.66229 29.26 8.9755 28.9152C9.22479 28.6415 9.40306 28.1135 9.40306 27.7444C9.40448 26.4438 9.40519 25.7969 9.4059 24.5246ZM8.55647 19.2058C8.91229 19.2058 9.41087 19.4076 9.62394 19.644C10.6197 20.673 11.1168 21.1969 12.1126 22.246C12.3612 22.5224 12.5742 23.009 12.5735 23.3607C12.5721 25.3573 12.57 27.3546 12.5678 29.3519C12.5678 29.7155 12.3541 30.2372 12.1048 30.5082C11.8342 30.7881 11.6985 30.9283 11.4279 31.211C11.1786 31.4854 11.1786 31.8911 11.4272 32.1302C11.6978 32.39 11.8327 32.5193 12.1026 32.7764C12.3512 33.0127 12.5643 33.5055 12.5636 33.869C12.5607 37.0495 12.5579 40.2306 12.555 43.4111C12.5543 43.7484 12.234 44.0587 11.8782 44.1077C11.1389 44.2107 10.7688 44.2632 10.0295 44.3717C9.67365 44.4236 9.38956 44.1976 9.39027 43.8575C9.3924 41.1899 9.39453 38.5215 9.39666 35.8539C9.39738 35.4841 9.18431 35.0231 8.93573 34.7868C8.63743 34.4875 8.48757 34.3376 8.18928 34.0349C7.9407 33.7951 7.72763 33.5877 7.72763 33.5877C7.72763 33.5877 7.44283 33.6133 7.08772 33.6458C5.76456 33.7674 5.10405 33.8303 3.78232 33.9623C3.42649 33.9975 3.10689 34.3825 3.10618 34.7723C3.10547 38.1366 3.10405 41.5002 3.10263 44.8645C3.10263 45.2121 2.81854 45.5349 2.46342 45.5984C1.7397 45.727 1.37749 45.7926 0.654475 45.9267C0.299361 45.9931 -0.0195312 45.7761 -0.0195312 45.4243V19.834C-0.0195312 19.4823 0.300781 19.2058 0.656605 19.2058" fill="white"/>
<path d="M18.1028 43.324C17.747 43.3641 17.4622 43.1319 17.4629 42.7981C17.47 35.1337 17.4778 27.4694 17.4856 19.805C17.4856 19.4712 17.7704 19.2058 18.127 19.2058H26.0623C26.4181 19.2058 26.7385 19.4705 26.7377 19.8022C26.7377 20.4657 26.7377 20.7974 26.737 21.4616C26.7363 21.7933 26.4153 22.0262 26.0602 22.0276C24.1525 22.0317 23.1987 22.0352 21.291 22.0435C20.8997 22.0456 20.6149 22.3165 20.6142 22.6551C20.612 24.7775 20.6106 26.9006 20.6085 29.0237C20.6078 29.3685 20.8926 29.6325 21.2839 29.6166C23.1923 29.5378 24.1468 29.5033 26.0545 29.4404C26.4103 29.4293 26.7306 29.6857 26.7306 30.0195C26.7299 30.6865 26.7299 31.0196 26.7299 31.6872C26.7292 32.0203 26.4089 32.3023 26.0524 32.3195C24.144 32.4115 23.1895 32.4626 21.2818 32.5753C20.8897 32.5981 20.6049 32.8918 20.6042 33.2021C20.6028 35.3369 20.6007 37.471 20.5985 39.6052C20.5985 39.91 20.8826 40.1518 21.2747 40.1138C23.1831 39.9321 24.1376 39.8491 26.0467 39.6992C26.4032 39.6715 26.7235 39.9127 26.7235 40.2451C26.7228 40.9093 26.7228 41.241 26.7221 41.9038C26.7221 42.2355 26.4011 42.5251 26.0453 42.5541C23.3933 42.7801 20.7484 43.0358 18.1028 43.324Z" fill="white"/>
<path d="M34.5602 38.6024C34.5602 38.8975 34.845 39.147 35.2008 39.1304C36.5545 39.0689 37.2314 39.0419 38.5843 38.9956C38.9409 38.9839 39.4395 38.8035 39.6887 38.5671C39.9878 38.2831 40.1376 38.1414 40.4366 37.8594C40.6859 37.6252 40.899 37.1656 40.8997 36.8428C40.8997 32.5953 40.8997 28.3478 40.9004 24.1009C40.9004 23.81 40.6866 23.3552 40.438 23.1258C40.139 22.8638 39.9892 22.7325 39.6909 22.4692C39.4416 22.2384 38.943 22.0393 38.5872 22.038C37.2349 22.0324 36.5581 22.0304 35.2058 22.0276C34.8507 22.0262 34.5652 22.2895 34.5652 22.6171C34.5637 27.9455 34.5616 33.274 34.5602 38.6024ZM32.0652 42.1415C31.7086 42.1616 31.4238 41.9121 31.4238 41.5797C31.4274 34.3217 31.4309 27.063 31.4345 19.8043C31.4345 19.4719 31.7193 19.2058 32.0758 19.2058H40.0467C40.4025 19.2058 40.8649 19.4097 41.1142 19.6467C42.1106 20.6502 42.6085 21.1478 43.6049 22.1292C43.8542 22.3946 44.0318 22.8548 44.0318 23.1479C44.0318 28.1238 44.0318 33.1005 44.0318 38.0765V38.6667C44.0318 38.6667 43.8187 38.8339 43.5339 39.0696C42.4515 39.986 41.9103 40.4525 40.828 41.3965C40.5787 41.6391 40.0439 41.8209 39.688 41.8305C37.1454 41.9052 34.6056 42.0095 32.0652 42.1415Z" fill="white"/>
<path d="M58.0888 19.7725C58.2308 19.4726 58.6577 19.2058 59.0142 19.2058H61.1137C61.4695 19.2058 61.6477 19.4712 61.505 19.7691C59.6293 23.7761 57.7216 27.7672 55.7763 31.7432C55.6698 32.0279 55.5277 32.5027 55.5277 32.822C55.5277 35.6507 55.5277 38.4794 55.5284 41.3081C55.5284 41.6419 55.2436 41.901 54.8871 41.89C54.1612 41.8665 53.7983 41.8561 53.0717 41.8381C52.6804 41.8278 52.3956 41.5506 52.3956 41.2141C52.3956 38.3944 52.3956 35.574 52.3956 32.7542C52.3956 32.4377 52.2884 31.9622 52.1463 31.6768C50.2117 27.7251 48.2578 23.7844 46.4162 19.7905C46.2742 19.4829 46.4517 19.2058 46.8083 19.2058H48.9432C49.299 19.2058 49.6904 19.4795 49.8324 19.7836C51.0959 22.5031 52.3992 25.2025 53.7124 27.8992C53.8544 28.186 54.1037 28.1874 54.2102 27.902C55.5242 25.2012 56.8161 22.4913 58.0888 19.7725Z" fill="white"/>
<path d="M70.1904 31.0272C70.5463 31.0438 70.7949 30.7818 70.7601 30.437C70.3126 27.8564 69.8616 25.2758 69.4049 22.6966C69.3694 22.3953 69.0846 22.0933 68.8353 22.0926C68.5505 22.0912 68.302 22.3911 68.2309 22.6911C67.7927 25.2205 67.3545 27.75 66.9156 30.2794C66.8446 30.6125 67.0939 30.8903 67.4497 30.9048C68.5463 30.9505 69.0939 30.9746 70.1904 31.0272ZM75.9589 42.8734C76.0299 43.2155 75.7814 43.4491 75.4255 43.4069C74.6706 43.3171 74.2934 43.2743 73.5392 43.1913C73.1834 43.1519 72.8623 42.8541 72.7913 42.5147C72.3467 39.9113 71.9085 37.3066 71.4724 34.7018C71.4014 34.3535 71.0811 34.057 70.7245 34.0335C69.216 33.9333 68.461 33.8877 66.9518 33.8033C66.5967 33.7833 66.2402 34.0314 66.2047 34.3631C65.7565 36.8456 65.3062 39.3274 64.8538 41.8084C64.8183 42.1367 64.4625 42.3758 64.1066 42.3509C63.3517 42.2991 62.9745 42.2749 62.2196 42.2286C61.8637 42.2072 61.65 41.9294 61.6855 41.6004C62.9951 34.3348 64.3034 27.0685 65.5967 19.8002C65.6322 19.4698 65.988 19.2058 66.3439 19.2058H71.3254C71.6819 19.2058 72.0022 19.4698 72.0733 19.8009C73.4184 27.4839 74.65 35.1849 75.9589 42.8734Z" fill="white"/>
<path d="M88.8334 24.6794C88.8334 24.3041 88.6197 23.7775 88.3704 23.5135C88.0714 23.1969 87.9222 23.0401 87.6232 22.7298C87.3739 22.4713 86.8761 22.2481 86.5202 22.2432C85.1964 22.2246 84.5344 22.2163 83.2106 22.2004C82.8548 22.1962 82.5344 22.4734 82.5352 22.8272C82.5352 25.047 82.5359 27.2669 82.5366 29.4867C82.5366 29.8571 82.8569 30.175 83.2127 30.1985C84.5359 30.2849 85.1978 30.3305 86.5209 30.4273C86.8775 30.4536 87.3754 30.2594 87.6239 30.0064C87.9371 29.6892 88.0934 29.5295 88.4066 29.2096C88.6559 28.9552 88.8334 28.4224 88.8334 28.0361C88.8334 26.676 88.8334 26.0015 88.8334 24.6794ZM87.979 19.2058C88.3342 19.2058 88.8327 19.4104 89.0465 19.6523C90.043 20.7055 90.5408 21.2529 91.5373 22.3953C91.7859 22.6952 91.9996 23.2246 91.9996 23.6026V30.1391C91.9996 30.5399 91.7859 31.0838 91.5373 31.3416C91.2674 31.6056 91.1317 31.7369 90.8611 31.9982C90.6126 32.2539 90.6126 32.6893 90.8619 32.9934C91.1317 33.3237 91.2674 33.4896 91.5373 33.8241C91.7859 34.1316 91.9996 34.7184 91.9996 35.1185V45.4243C91.9996 45.7761 91.6793 45.9882 91.3242 45.917C90.5849 45.7698 90.2148 45.6987 89.4755 45.5591C89.1197 45.492 88.8356 45.1658 88.8356 44.8189C88.8349 42.0565 88.8349 39.2935 88.8342 36.5311C88.8342 36.1448 88.6211 35.614 88.3718 35.3134C88.0728 34.9375 87.9236 34.7509 87.6246 34.379C87.3761 34.0819 87.1623 33.8289 87.1623 33.8289C87.1623 33.8289 86.8775 33.7999 86.5217 33.764C85.1985 33.632 84.5366 33.5684 83.2134 33.4488C82.8576 33.4163 82.5373 33.7218 82.5373 34.0929C82.538 37.3176 82.5387 40.5423 82.5401 43.7677C82.5401 44.1063 82.2553 44.3296 81.8995 44.2764C81.1736 44.1679 80.8107 44.1146 80.0849 44.0124C79.729 43.9619 79.4087 43.6523 79.4087 43.3164C79.4066 35.48 79.4045 27.6435 79.4023 19.8071C79.4023 19.4719 79.7227 19.2058 80.0785 19.2058" fill="white"/>
</g>
<defs>
<clipPath id="clip0">
<rect width="92" height="46" fill="white"/>
</clipPath>
</defs>
</svg>
