<svg width="24" height="25" viewBox="0 0 24 25" fill="none" xmlns="http://www.w3.org/2000/svg">
<path d="M11.9997 8.34528C9.80146 8.34528 8.00757 10.1392 8.00757 12.3374C8.00757 14.5356 9.80146 16.3295 11.9997 16.3295C14.1978 16.3295 15.9917 14.5356 15.9917 12.3374C15.9917 10.1392 14.1978 8.34528 11.9997 8.34528ZM23.9729 12.3374C23.9729 10.6842 23.9879 9.04607 23.895 7.39593C23.8022 5.47925 23.365 3.77819 21.9634 2.37662C20.5588 0.972054 18.8608 0.537806 16.9441 0.444967C15.291 0.352128 13.6528 0.367102 12.0026 0.367102C10.3495 0.367102 8.71135 0.352128 7.06121 0.444967C5.14453 0.537806 3.44348 0.975049 2.0419 2.37662C0.637337 3.78119 0.203089 5.47925 0.11025 7.39593C0.0174108 9.04906 0.0323849 10.6872 0.0323849 12.3374C0.0323849 13.9875 0.0174108 15.6287 0.11025 17.2788C0.203089 19.1955 0.640332 20.8965 2.0419 22.2981C3.44647 23.7027 5.14453 24.1369 7.06121 24.2298C8.71434 24.3226 10.3525 24.3076 12.0026 24.3076C13.6558 24.3076 15.2939 24.3226 16.9441 24.2298C18.8608 24.1369 20.5618 23.6997 21.9634 22.2981C23.368 20.8935 23.8022 19.1955 23.895 17.2788C23.9909 15.6287 23.9729 13.9905 23.9729 12.3374ZM11.9997 18.4797C8.60054 18.4797 5.85729 15.7365 5.85729 12.3374C5.85729 8.93826 8.60054 6.19501 11.9997 6.19501C15.3988 6.19501 18.142 8.93826 18.142 12.3374C18.142 15.7365 15.3988 18.4797 11.9997 18.4797ZM18.3936 7.37796C17.6 7.37796 16.9591 6.73707 16.9591 5.94344C16.9591 5.14982 17.6 4.50893 18.3936 4.50893C19.1872 4.50893 19.8281 5.14982 19.8281 5.94344C19.8283 6.13189 19.7914 6.31854 19.7194 6.49269C19.6474 6.66684 19.5417 6.82507 19.4085 6.95833C19.2752 7.09158 19.117 7.19724 18.9428 7.26924C18.7687 7.34125 18.582 7.3782 18.3936 7.37796Z" fill="white"/>
</svg>
