<svg width="86" height="85" viewBox="0 0 86 85" fill="none" xmlns="http://www.w3.org/2000/svg">
<g filter="url(#filter0_d)">
<path d="M43.5 52.25C39.1463 52.25 35.625 55.7713 35.625 60.125C35.625 66.0313 43.5 74.75 43.5 74.75C43.5 74.75 51.375 66.0313 51.375 60.125C51.375 55.7713 47.8538 52.25 43.5 52.25ZM43.5 62.9375C41.9475 62.9375 40.6875 61.6775 40.6875 60.125C40.6875 58.5725 41.9475 57.3125 43.5 57.3125C45.0525 57.3125 46.3125 58.5725 46.3125 60.125C46.3125 61.6775 45.0525 62.9375 43.5 62.9375Z" fill="#F15C22"/>
<g clip-path="url(#clip0)">
<path d="M20.4523 9.1459C20.5697 9.04805 20.7539 9.04805 20.8713 9.1459L21.4916 9.74941C21.609 9.86367 21.609 10.043 21.4916 10.1572L20.4523 11.1527C20.318 11.2664 20.0831 11.3643 19.9157 11.3643H17.8534C17.6854 11.3643 17.4343 11.2828 17.3169 11.1686L16.0259 10.0266C15.8916 9.92871 15.791 9.7002 15.791 9.5373V1.75488C15.791 1.59199 15.8916 1.36348 16.0259 1.26562L17.3 0.140039C17.4343 0.0257812 17.6685 -0.0556641 17.8365 -0.0556641H19.9157C20.0831 -0.0556641 20.318 0.0416015 20.4523 0.155859L21.4916 1.15137C21.609 1.26563 21.609 1.46133 21.4916 1.57559L20.8713 2.1627C20.7539 2.27695 20.5697 2.27695 20.4523 2.1627L19.8314 1.57559C19.714 1.46133 19.4792 1.36348 19.3118 1.36348H18.3562C18.1888 1.36348 17.9539 1.46133 17.8365 1.57559L17.4843 1.90195C17.3668 2.01621 17.2663 2.24473 17.2663 2.40762V8.88457C17.2663 9.04805 17.3668 9.27598 17.4843 9.39023L17.8365 9.73301C17.9539 9.84727 18.1888 9.94512 18.3562 9.94512H19.3118C19.4792 9.94512 19.714 9.86367 19.8314 9.74941" fill="#F15C22"/>
<path d="M27.744 2.42402C27.744 2.26055 27.6435 2.03262 27.5261 1.91836L27.1738 1.57559C27.0564 1.46133 26.8222 1.36348 26.6542 1.36348H25.0952C24.9272 1.36348 24.7767 1.49414 24.7767 1.65703V4.64297C24.7767 4.80586 24.9272 4.93652 25.0952 4.93652H26.6542C26.8222 4.93652 27.0564 4.83867 27.1738 4.72441L27.5429 4.36523C27.6603 4.25156 27.744 4.02305 27.744 3.85957V2.42402ZM27.3418 -0.0556641C27.5092 -0.0556641 27.744 0.0421874 27.8446 0.155859L29.0182 1.39629C29.1356 1.52695 29.2362 1.75488 29.2362 1.91836V4.64297C29.2362 4.80586 29.1356 5.03438 29.0182 5.14863L28.6997 5.44219C28.5822 5.55645 28.5822 5.73574 28.6997 5.85L29.0182 6.15996C29.1356 6.27422 29.2362 6.50274 29.2362 6.66563V11.0707C29.2362 11.2342 29.085 11.3648 28.9176 11.3648H28.0457C27.8783 11.3648 27.744 11.2342 27.744 11.0707V7.41621C27.744 7.25332 27.6435 7.04121 27.5261 6.92695L27.1738 6.56777C27.0564 6.4541 26.9564 6.35566 26.9564 6.35566H25.0952C24.9272 6.35566 24.7767 6.50274 24.7767 6.66563V11.0707C24.7767 11.2342 24.6424 11.3648 24.4744 11.3648H23.6193C23.4519 11.3648 23.3008 11.2342 23.3008 11.0707V0.237891C23.3008 0.074414 23.4519 -0.0556641 23.6193 -0.0556641" fill="#F15C22"/>
<path d="M33.0423 8.85176C33.0423 9.01523 33.1428 9.24375 33.2603 9.35801L33.595 9.7166C33.7125 9.83086 33.9473 9.92871 34.1153 9.92871H35.54C35.708 9.92871 35.9428 9.83086 36.0602 9.7166L36.4119 9.37383C36.5293 9.25957 36.6299 9.03164 36.6299 8.86816V2.44043C36.6299 2.27754 36.5293 2.04902 36.4119 1.93477L36.0602 1.59199C35.9428 1.46133 35.7248 1.37988 35.5568 1.37988H34.1316C33.9642 1.37988 33.7293 1.46133 33.6119 1.57559L33.2603 1.93477C33.1428 2.04902 33.0423 2.27754 33.0423 2.44043V8.85176ZM38.1057 9.5209C38.1057 9.68379 38.0052 9.91289 37.8709 10.0266L36.5962 11.1527C36.4625 11.2664 36.2776 11.3643 36.1771 11.3643H33.6119C33.4445 11.3643 33.1928 11.2664 33.0754 11.1527L31.7844 10.0266C31.6676 9.91289 31.5664 9.68379 31.5664 9.5209V1.77129C31.5664 1.6084 31.6676 1.37988 31.7844 1.26562L33.0754 0.140039C33.1928 0.0257812 33.4445 -0.0556641 33.6119 -0.0556641H36.0434C36.2276 -0.0556641 36.4625 0.0257812 36.5962 0.140039L37.8709 1.26562C38.0052 1.37988 38.1057 1.6084 38.1057 1.77129" fill="#F15C22"/>
<path d="M45.6337 9.65156C45.6337 9.81445 45.5331 10.043 45.4157 10.1572L44.3764 11.1527C44.2584 11.2664 44.0241 11.3643 43.8561 11.3643H41.5258C41.3578 11.3643 41.1236 11.2664 41.0062 11.1527L39.9494 10.1408C39.832 10.0266 39.832 9.84727 39.9494 9.73301L40.5702 9.1459C40.687 9.03164 40.8887 9.03164 41.0062 9.1459L41.6095 9.73301C41.7269 9.84727 41.9618 9.94512 42.1292 9.94512H43.2528C43.4202 9.94512 43.655 9.84727 43.7724 9.73301L43.9398 9.57012C44.0578 9.45527 44.1578 9.22734 44.1578 9.06387V8.44395C44.1578 8.28105 44.0578 8.05254 43.9398 7.93828L40.1343 3.94102C40.0168 3.82676 39.9163 3.59883 39.9163 3.43535V1.64063C39.9163 1.49414 40.0168 1.26563 40.1343 1.15137L41.1904 0.140039C41.3078 0.0257812 41.5427 -0.0556641 41.7101 -0.0556641H44.0404C44.2084 -0.0556641 44.4432 0.0257812 44.56 0.140039L45.6168 1.15137C45.7342 1.26563 45.7342 1.44492 45.6168 1.55918L44.9966 2.14629C44.8792 2.26055 44.6781 2.26055 44.56 2.14629L43.9567 1.55918C43.8224 1.44492 43.5882 1.36348 43.4202 1.36348H42.3134C42.146 1.36348 41.9112 1.44492 41.7944 1.55918L41.6264 1.73848C41.4921 1.85273 41.4084 2.08125 41.4084 2.24473V2.84824C41.4084 3.01113 41.4921 3.23965 41.6264 3.35391L45.4157 7.35117C45.5331 7.46543 45.6337 7.70977 45.6337 7.87324" fill="#F15C22"/>
<path d="M52.9599 9.65156C52.9599 9.81445 52.8593 10.043 52.7419 10.1572L51.702 11.1527C51.5851 11.2664 51.3503 11.3643 51.1823 11.3643H48.8514C48.684 11.3643 48.4492 11.2664 48.3323 11.1527L47.2756 10.1408C47.1581 10.0266 47.1581 9.84727 47.2756 9.73301L47.8964 9.1459C48.0138 9.03164 48.2149 9.03164 48.3323 9.1459L48.9357 9.73301C49.0531 9.84727 49.2879 9.94512 49.4553 9.94512H50.579C50.7464 9.94512 50.9812 9.84727 51.0986 9.73301L51.266 9.57012C51.3834 9.45527 51.484 9.22734 51.484 9.06387V8.44395C51.484 8.28105 51.3834 8.05254 51.266 7.93828L47.4604 3.94102C47.343 3.82676 47.2424 3.59883 47.2424 3.43535V1.64063C47.2424 1.49414 47.343 1.26563 47.4604 1.15137L48.5166 0.140039C48.634 0.0257812 48.8689 -0.0556641 49.0362 -0.0556641H51.3666C51.5346 -0.0556641 51.7694 0.0257812 51.8868 0.140039L52.943 1.15137C53.0604 1.26563 53.0604 1.44492 52.943 1.55918L52.3228 2.14629C52.2054 2.26055 52.0036 2.26055 51.8868 2.14629L51.2829 1.55918C51.1486 1.44492 50.9144 1.36348 50.7464 1.36348H49.6396C49.4722 1.36348 49.238 1.44492 49.1199 1.55918L48.9526 1.73848C48.8183 1.85273 48.7346 2.08125 48.7346 2.24473V2.84824C48.7346 3.01113 48.8183 3.23965 48.9526 3.35391L52.7419 7.35117C52.8593 7.46543 52.9599 7.70977 52.9599 7.87324" fill="#F15C22"/>
<path d="M59.346 6.06211C59.346 6.22559 59.2123 6.35566 59.0449 6.35566H56.7808C56.6134 6.35566 56.4792 6.48633 56.4792 6.6334V11.0707C56.4792 11.2342 56.3449 11.3643 56.1775 11.3643H55.3056C55.1382 11.3643 55.0039 11.2342 55.0039 11.0707V0.237891C55.0039 0.074414 55.1382 -0.0556641 55.3056 -0.0556641H59.0449C59.2123 -0.0556641 59.346 0.074414 59.346 0.237891V1.05352C59.346 1.21641 59.2123 1.33066 59.0449 1.33066H56.7808C56.6134 1.33066 56.4792 1.46133 56.4792 1.62422V4.65879C56.4792 4.82227 56.6134 4.95293 56.7808 4.95293H59.0449C59.2123 4.95293 59.346 5.08359 59.346 5.24648" fill="#F15C22"/>
<path d="M61.1582 0.237891C61.1582 0.074414 61.2919 -0.0556641 61.4599 -0.0556641H62.3318C62.4992 -0.0556641 62.6335 0.074414 62.6335 0.237891V11.0707C62.6335 11.2342 62.4992 11.3648 62.3318 11.3648H61.4599C61.2919 11.3648 61.1582 11.2342 61.1582 11.0707" fill="#F15C22"/>
<path d="M64.291 0.237891C64.291 0.074414 64.4247 -0.0556641 64.5927 -0.0556641H69.891C70.0584 -0.0556641 70.1927 0.074414 70.1927 0.237891V1.06992C70.1927 1.23281 70.0584 1.36348 69.891 1.36348H68.2815C68.1141 1.36348 67.9798 1.49414 67.9798 1.65703V11.0707C67.9798 11.2342 67.8455 11.3648 67.6775 11.3648H66.8062C66.6382 11.3648 66.5039 11.2342 66.5039 11.0707V1.65703C66.5039 1.49414 66.3696 1.36348 66.2022 1.36348H64.5927C64.4247 1.36348 64.291 1.23281 64.291 1.06992" fill="#F15C22"/>
<path d="M11.9755 20.7926C11.9761 20.4867 11.7955 20.0643 11.5841 19.8551C11.3312 19.6043 11.2047 19.4789 10.9512 19.2287C10.7405 19.0201 10.3184 18.8443 10.0167 18.8479C8.8943 18.8613 8.3337 18.8684 7.21129 18.8836C6.90962 18.8877 6.63805 19.1385 6.63805 19.4502C6.63744 21.4219 6.63684 23.3941 6.63624 25.3658C6.63624 25.6969 6.90721 25.9424 7.20828 25.9207C8.32948 25.8393 8.89009 25.8006 10.0119 25.7262C10.3136 25.7057 10.7357 25.4865 10.947 25.2504C11.2126 24.9545 11.345 24.8074 11.6106 24.515C11.822 24.283 11.9731 23.8354 11.9731 23.5225C11.9743 22.4197 11.9749 21.8713 11.9755 20.7926ZM11.2553 16.2832C11.557 16.2832 11.9797 16.4543 12.1604 16.6547C13.0046 17.5271 13.4261 17.9713 14.2703 18.8607C14.481 19.0951 14.6617 19.5076 14.6611 19.8059C14.6599 21.4986 14.6581 23.192 14.6563 24.8854C14.6563 25.1936 14.475 25.6359 14.2637 25.8656C14.0342 26.1029 13.9192 26.2219 13.6898 26.4615C13.4785 26.6941 13.4785 27.0381 13.6892 27.2408C13.9186 27.4611 14.033 27.5707 14.2619 27.7887C14.4726 27.9891 14.6533 28.4068 14.6527 28.715C14.6502 31.4115 14.6478 34.1086 14.6454 36.8051C14.6448 37.091 14.3733 37.3541 14.0716 37.3957C13.4447 37.483 13.131 37.5275 12.5042 37.6195C12.2025 37.6635 11.9616 37.4719 11.9623 37.1836C11.9641 34.9219 11.9659 32.6596 11.9677 30.3978C11.9683 30.0844 11.7876 29.6936 11.5769 29.4932C11.324 29.2395 11.1969 29.1123 10.944 28.8557C10.7333 28.6523 10.5526 28.4766 10.5526 28.4766C10.5526 28.4766 10.3112 28.4982 10.0101 28.5258C8.88828 28.6289 8.32828 28.6822 7.20768 28.7941C6.906 28.824 6.63504 29.1504 6.63443 29.4809C6.63383 32.3332 6.63263 35.185 6.63142 38.0373C6.63142 38.332 6.39056 38.6057 6.08949 38.6596C5.4759 38.7686 5.1688 38.8242 4.55581 38.9379C4.25474 38.9941 3.98438 38.8102 3.98438 38.5119V16.8158C3.98438 16.5176 4.25594 16.2832 4.55762 16.2832" fill="white"/>
<path d="M19.3492 36.7312C19.0475 36.7652 18.806 36.5684 18.8066 36.2854C18.8127 29.7873 18.8193 23.2893 18.8259 16.7912C18.8259 16.5082 19.0674 16.2832 19.3697 16.2832H26.0975C26.3991 16.2832 26.6707 16.5076 26.6701 16.7889C26.6701 17.3514 26.6701 17.6326 26.6695 18.1957C26.6689 18.477 26.3967 18.6744 26.0957 18.6756C24.4783 18.6791 23.6696 18.682 22.0522 18.6891C21.7204 18.6908 21.479 18.9205 21.4784 19.2076C21.4766 21.007 21.4754 22.807 21.4736 24.607C21.473 24.8994 21.7144 25.1232 22.0462 25.1098C23.6642 25.043 24.4735 25.0137 26.0908 24.9604C26.3925 24.951 26.6641 25.1684 26.6641 25.4514C26.6635 26.0168 26.6635 26.2992 26.6635 26.8652C26.6629 27.1477 26.3913 27.3867 26.089 27.4014C24.4711 27.4793 23.6618 27.5227 22.0444 27.6182C21.712 27.6375 21.4706 27.8865 21.4699 28.1496C21.4687 29.9596 21.4669 31.7689 21.4651 33.5783C21.4651 33.8367 21.706 34.0418 22.0384 34.0096C23.6564 33.8555 24.4656 33.7852 26.0842 33.658C26.3865 33.6346 26.6581 33.8391 26.6581 34.1209C26.6575 34.684 26.6575 34.9652 26.6569 35.5271C26.6569 35.8084 26.3847 36.0539 26.083 36.0785C23.8346 36.2701 21.5922 36.4869 19.3492 36.7312Z" fill="white"/>
<path d="M33.3036 32.7281C33.3036 32.9783 33.5451 33.1898 33.8468 33.1758C34.9945 33.1236 35.5683 33.1008 36.7154 33.0615C37.0177 33.0516 37.4404 32.8986 37.6517 32.6982C37.9053 32.4574 38.0323 32.3373 38.2858 32.0982C38.4972 31.8996 38.6778 31.51 38.6784 31.2363C38.6784 27.6352 38.6784 24.034 38.679 20.4334C38.679 20.1867 38.4978 19.8012 38.287 19.6066C38.0335 19.3846 37.9065 19.2732 37.6536 19.05C37.4422 18.8543 37.0195 18.6855 36.7178 18.6844C35.5713 18.6797 34.9975 18.6779 33.851 18.6756C33.5499 18.6744 33.3078 18.8977 33.3078 19.1754C33.3066 23.693 33.3048 28.2105 33.3036 32.7281ZM31.1883 35.7287C30.886 35.7457 30.6445 35.5342 30.6445 35.2523C30.6475 29.0988 30.6506 22.9447 30.6536 16.7906C30.6536 16.5088 30.895 16.2832 31.1973 16.2832H37.9552C38.2569 16.2832 38.6489 16.4561 38.8603 16.657C39.7051 17.5078 40.1272 17.9297 40.972 18.7617C41.1834 18.9867 41.3339 19.377 41.3339 19.6254C41.3339 23.8441 41.3339 28.0635 41.3339 32.2822V32.7826C41.3339 32.7826 41.1532 32.9244 40.9118 33.1242C39.9941 33.9012 39.5353 34.2967 38.6176 35.0971C38.4062 35.3027 37.9528 35.4568 37.6511 35.465C35.4954 35.5283 33.3422 35.6168 31.1883 35.7287Z" fill="white"/>
<path d="M53.2504 16.7637C53.3708 16.5094 53.7327 16.2832 54.035 16.2832H55.8149C56.1166 16.2832 56.2678 16.5082 56.1467 16.7607C54.5564 20.158 52.9391 23.5418 51.2898 26.9127C51.1995 27.1541 51.079 27.5566 51.079 27.8273C51.079 30.2256 51.079 32.6238 51.0796 35.0221C51.0796 35.3051 50.8382 35.5248 50.5359 35.5154C49.9205 35.4955 49.6128 35.4867 48.9968 35.4715C48.665 35.4627 48.4236 35.2277 48.4236 34.9424C48.4236 32.5518 48.4236 30.1606 48.4236 27.7699C48.4236 27.5016 48.3326 27.0984 48.2122 26.8564C46.5719 23.5061 44.9154 20.165 43.3541 16.7789C43.2336 16.5182 43.3842 16.2832 43.6864 16.2832H45.4965C45.7982 16.2832 46.13 16.5152 46.2504 16.773C47.3216 19.0787 48.4266 21.3674 49.5399 23.6537C49.6604 23.8969 49.8717 23.898 49.962 23.6561C51.076 21.3662 52.1713 19.0688 53.2504 16.7637Z" fill="white"/>
<path d="M63.5089 26.3057C63.8106 26.3197 64.0213 26.0977 63.9918 25.8053C63.6125 23.6174 63.2301 21.4295 62.8429 19.2428C62.8128 18.9873 62.5714 18.7312 62.36 18.7307C62.1185 18.7295 61.9078 18.9838 61.8476 19.2381C61.4761 21.3826 61.1045 23.5271 60.7324 25.6717C60.6722 25.9541 60.8835 26.1896 61.1852 26.202C62.1149 26.2406 62.5792 26.2611 63.5089 26.3057ZM68.3996 36.3492C68.4598 36.6393 68.249 36.8373 67.9474 36.8016C67.3073 36.7254 66.9875 36.6891 66.348 36.6187C66.0464 36.5853 65.7742 36.3328 65.714 36.0451C65.337 33.8379 64.9655 31.6295 64.5958 29.4211C64.5356 29.1258 64.264 28.8744 63.9617 28.8545C62.6828 28.7695 62.0427 28.7309 60.7631 28.6594C60.462 28.6424 60.1598 28.8527 60.1297 29.134C59.7497 31.2387 59.3679 33.3428 58.9844 35.4463C58.9543 35.7246 58.6526 35.9273 58.3509 35.9062C57.7108 35.8623 57.3911 35.8418 56.751 35.8025C56.4493 35.7844 56.2681 35.5488 56.2982 35.2699C57.4085 29.11 58.5177 22.9494 59.6142 16.7871C59.6443 16.507 59.946 16.2832 60.2477 16.2832H64.4711C64.7734 16.2832 65.045 16.507 65.1052 16.7877C66.2457 23.3016 67.2898 29.8307 68.3996 36.3492Z" fill="white"/>
<path d="M79.3163 20.9238C79.3163 20.6057 79.135 20.1592 78.9237 19.9354C78.6701 19.667 78.5437 19.534 78.2902 19.2709C78.0788 19.0518 77.6567 18.8625 77.3551 18.8584C76.2326 18.8426 75.6714 18.8355 74.549 18.8221C74.2474 18.8186 73.9758 19.0535 73.9764 19.3535C73.9764 21.2355 73.977 23.1176 73.9776 24.9996C73.9776 25.3137 74.2492 25.5832 74.5508 25.6031C75.6726 25.6764 76.2339 25.715 77.3557 25.7971C77.6579 25.8193 78.08 25.6547 78.2908 25.4402C78.5563 25.1713 78.6888 25.0359 78.9544 24.7646C79.1657 24.549 79.3163 24.0973 79.3163 23.7697C79.3163 22.6166 79.3163 22.0447 79.3163 20.9238ZM78.5919 16.2832C78.8929 16.2832 79.3156 16.4566 79.4969 16.6617C80.3417 17.5547 80.7638 18.0187 81.6086 18.9873C81.8194 19.2416 82.0006 19.6904 82.0006 20.0109V25.5527C82.0006 25.8926 81.8194 26.3537 81.6086 26.5723C81.3798 26.7961 81.2648 26.9074 81.0354 27.1289C80.8246 27.3457 80.8246 27.7148 81.036 27.9727C81.2648 28.2527 81.3798 28.3934 81.6086 28.677C81.8194 28.9377 82.0006 29.4352 82.0006 29.7744V38.5119C82.0006 38.8102 81.7291 38.99 81.428 38.9297C80.8012 38.8049 80.4874 38.7445 79.8606 38.6262C79.5589 38.5693 79.3181 38.2928 79.3181 37.9986C79.3175 35.6566 79.3175 33.3141 79.3169 30.9721C79.3169 30.6445 79.1362 30.1945 78.9249 29.9396C78.6714 29.6209 78.5449 29.4627 78.2914 29.1475C78.0806 28.8955 77.8994 28.6811 77.8994 28.6811C77.8994 28.6811 77.6579 28.6564 77.3563 28.626C76.2345 28.5141 75.6732 28.4602 74.5514 28.3588C74.2498 28.3312 73.9782 28.5902 73.9782 28.9049C73.9788 31.6389 73.9794 34.3728 73.9806 37.1074C73.9806 37.3945 73.7391 37.5838 73.4375 37.5387C72.8221 37.4467 72.5144 37.4016 71.899 37.3148C71.5973 37.2721 71.3257 37.0096 71.3257 36.7248C71.3239 30.0809 71.3221 23.4369 71.3203 16.793C71.3203 16.5088 71.5919 16.2832 71.8936 16.2832" fill="white"/>
</g>
</g>
<defs>
<filter id="filter0_d" x="0" y="0" width="86" height="85" filterUnits="userSpaceOnUse" color-interpolation-filters="sRGB">
<feFlood flood-opacity="0" result="BackgroundImageFix"/>
<feColorMatrix in="SourceAlpha" type="matrix" values="0 0 0 0 0 0 0 0 0 0 0 0 0 0 0 0 0 0 127 0"/>
<feOffset dy="4"/>
<feGaussianBlur stdDeviation="2"/>
<feColorMatrix type="matrix" values="0 0 0 0 0 0 0 0 0 0 0 0 0 0 0 0 0 0 1 0"/>
<feBlend mode="normal" in2="BackgroundImageFix" result="effect1_dropShadow"/>
<feBlend mode="normal" in="SourceGraphic" in2="effect1_dropShadow" result="shape"/>
</filter>
<clipPath id="clip0">
<rect width="78" height="39" fill="white" transform="translate(4)"/>
</clipPath>
</defs>
</svg>
