<svg width="78" height="77" viewBox="0 0 78 77" fill="none" xmlns="http://www.w3.org/2000/svg">
<path d="M39.5 52.25C35.1463 52.25 31.625 55.7713 31.625 60.125C31.625 66.0313 39.5 74.75 39.5 74.75C39.5 74.75 47.375 66.0313 47.375 60.125C47.375 55.7713 43.8538 52.25 39.5 52.25ZM39.5 62.9375C37.9475 62.9375 36.6875 61.6775 36.6875 60.125C36.6875 58.5725 37.9475 57.3125 39.5 57.3125C41.0525 57.3125 42.3125 58.5725 42.3125 60.125C42.3125 61.6775 41.0525 62.9375 39.5 62.9375Z" fill="#F15C22"/>
<g clip-path="url(#clip0)">
<path d="M16.4523 9.1459C16.5697 9.04805 16.7539 9.04805 16.8713 9.1459L17.4916 9.74941C17.609 9.86367 17.609 10.043 17.4916 10.1572L16.4523 11.1527C16.318 11.2664 16.0831 11.3643 15.9157 11.3643H13.8534C13.6854 11.3643 13.4343 11.2828 13.3169 11.1686L12.0259 10.0266C11.8916 9.92871 11.791 9.7002 11.791 9.5373V1.75488C11.791 1.59199 11.8916 1.36348 12.0259 1.26562L13.3 0.140039C13.4343 0.0257812 13.6685 -0.0556641 13.8365 -0.0556641H15.9157C16.0831 -0.0556641 16.318 0.0416015 16.4523 0.155859L17.4916 1.15137C17.609 1.26563 17.609 1.46133 17.4916 1.57559L16.8713 2.1627C16.7539 2.27695 16.5697 2.27695 16.4523 2.1627L15.8314 1.57559C15.714 1.46133 15.4792 1.36348 15.3118 1.36348H14.3562C14.1888 1.36348 13.9539 1.46133 13.8365 1.57559L13.4843 1.90195C13.3668 2.01621 13.2663 2.24473 13.2663 2.40762V8.88457C13.2663 9.04805 13.3668 9.27598 13.4843 9.39023L13.8365 9.73301C13.9539 9.84727 14.1888 9.94512 14.3562 9.94512H15.3118C15.4792 9.94512 15.714 9.86367 15.8314 9.74941" fill="#F15C22"/>
<path d="M23.744 2.42402C23.744 2.26055 23.6435 2.03262 23.5261 1.91836L23.1738 1.57559C23.0564 1.46133 22.8222 1.36348 22.6542 1.36348H21.0952C20.9272 1.36348 20.7767 1.49414 20.7767 1.65703V4.64297C20.7767 4.80586 20.9272 4.93652 21.0952 4.93652H22.6542C22.8222 4.93652 23.0564 4.83867 23.1738 4.72441L23.5429 4.36523C23.6603 4.25156 23.744 4.02305 23.744 3.85957V2.42402ZM23.3418 -0.0556641C23.5092 -0.0556641 23.744 0.0421874 23.8446 0.155859L25.0182 1.39629C25.1356 1.52695 25.2362 1.75488 25.2362 1.91836V4.64297C25.2362 4.80586 25.1356 5.03438 25.0182 5.14863L24.6997 5.44219C24.5822 5.55645 24.5822 5.73574 24.6997 5.85L25.0182 6.15996C25.1356 6.27422 25.2362 6.50274 25.2362 6.66563V11.0707C25.2362 11.2342 25.085 11.3648 24.9176 11.3648H24.0457C23.8783 11.3648 23.744 11.2342 23.744 11.0707V7.41621C23.744 7.25332 23.6435 7.04121 23.5261 6.92695L23.1738 6.56777C23.0564 6.4541 22.9564 6.35566 22.9564 6.35566H21.0952C20.9272 6.35566 20.7767 6.50274 20.7767 6.66563V11.0707C20.7767 11.2342 20.6424 11.3648 20.4744 11.3648H19.6193C19.4519 11.3648 19.3008 11.2342 19.3008 11.0707V0.237891C19.3008 0.074414 19.4519 -0.0556641 19.6193 -0.0556641" fill="#F15C22"/>
<path d="M29.0423 8.85176C29.0423 9.01523 29.1428 9.24375 29.2603 9.35801L29.595 9.7166C29.7125 9.83086 29.9473 9.92871 30.1153 9.92871H31.54C31.708 9.92871 31.9428 9.83086 32.0602 9.7166L32.4119 9.37383C32.5293 9.25957 32.6299 9.03164 32.6299 8.86816V2.44043C32.6299 2.27754 32.5293 2.04902 32.4119 1.93477L32.0602 1.59199C31.9428 1.46133 31.7248 1.37988 31.5568 1.37988H30.1316C29.9642 1.37988 29.7293 1.46133 29.6119 1.57559L29.2603 1.93477C29.1428 2.04902 29.0423 2.27754 29.0423 2.44043V8.85176ZM34.1057 9.5209C34.1057 9.68379 34.0052 9.91289 33.8709 10.0266L32.5962 11.1527C32.4625 11.2664 32.2776 11.3643 32.1771 11.3643H29.6119C29.4445 11.3643 29.1928 11.2664 29.0754 11.1527L27.7844 10.0266C27.6676 9.91289 27.5664 9.68379 27.5664 9.5209V1.77129C27.5664 1.6084 27.6676 1.37988 27.7844 1.26562L29.0754 0.140039C29.1928 0.0257812 29.4445 -0.0556641 29.6119 -0.0556641H32.0434C32.2276 -0.0556641 32.4625 0.0257812 32.5962 0.140039L33.8709 1.26562C34.0052 1.37988 34.1057 1.6084 34.1057 1.77129" fill="#F15C22"/>
<path d="M41.6337 9.65156C41.6337 9.81445 41.5331 10.043 41.4157 10.1572L40.3764 11.1527C40.2584 11.2664 40.0241 11.3643 39.8561 11.3643H37.5258C37.3578 11.3643 37.1236 11.2664 37.0062 11.1527L35.9494 10.1408C35.832 10.0266 35.832 9.84727 35.9494 9.73301L36.5702 9.1459C36.687 9.03164 36.8887 9.03164 37.0062 9.1459L37.6095 9.73301C37.7269 9.84727 37.9618 9.94512 38.1292 9.94512H39.2528C39.4202 9.94512 39.655 9.84727 39.7724 9.73301L39.9398 9.57012C40.0578 9.45527 40.1578 9.22734 40.1578 9.06387V8.44395C40.1578 8.28105 40.0578 8.05254 39.9398 7.93828L36.1343 3.94102C36.0168 3.82676 35.9163 3.59883 35.9163 3.43535V1.64063C35.9163 1.49414 36.0168 1.26563 36.1343 1.15137L37.1904 0.140039C37.3078 0.0257812 37.5427 -0.0556641 37.7101 -0.0556641H40.0404C40.2084 -0.0556641 40.4432 0.0257812 40.56 0.140039L41.6168 1.15137C41.7342 1.26563 41.7342 1.44492 41.6168 1.55918L40.9966 2.14629C40.8792 2.26055 40.6781 2.26055 40.56 2.14629L39.9567 1.55918C39.8224 1.44492 39.5882 1.36348 39.4202 1.36348H38.3134C38.146 1.36348 37.9112 1.44492 37.7944 1.55918L37.6264 1.73848C37.4921 1.85273 37.4084 2.08125 37.4084 2.24473V2.84824C37.4084 3.01113 37.4921 3.23965 37.6264 3.35391L41.4157 7.35117C41.5331 7.46543 41.6337 7.70977 41.6337 7.87324" fill="#F15C22"/>
<path d="M48.9599 9.65156C48.9599 9.81445 48.8593 10.043 48.7419 10.1572L47.702 11.1527C47.5851 11.2664 47.3503 11.3643 47.1823 11.3643H44.8514C44.684 11.3643 44.4492 11.2664 44.3323 11.1527L43.2756 10.1408C43.1581 10.0266 43.1581 9.84727 43.2756 9.73301L43.8964 9.1459C44.0138 9.03164 44.2149 9.03164 44.3323 9.1459L44.9357 9.73301C45.0531 9.84727 45.2879 9.94512 45.4553 9.94512H46.579C46.7464 9.94512 46.9812 9.84727 47.0986 9.73301L47.266 9.57012C47.3834 9.45527 47.484 9.22734 47.484 9.06387V8.44395C47.484 8.28105 47.3834 8.05254 47.266 7.93828L43.4604 3.94102C43.343 3.82676 43.2424 3.59883 43.2424 3.43535V1.64063C43.2424 1.49414 43.343 1.26563 43.4604 1.15137L44.5166 0.140039C44.634 0.0257812 44.8689 -0.0556641 45.0362 -0.0556641H47.3666C47.5346 -0.0556641 47.7694 0.0257812 47.8868 0.140039L48.943 1.15137C49.0604 1.26563 49.0604 1.44492 48.943 1.55918L48.3228 2.14629C48.2054 2.26055 48.0036 2.26055 47.8868 2.14629L47.2829 1.55918C47.1486 1.44492 46.9144 1.36348 46.7464 1.36348H45.6396C45.4722 1.36348 45.238 1.44492 45.1199 1.55918L44.9526 1.73848C44.8183 1.85273 44.7346 2.08125 44.7346 2.24473V2.84824C44.7346 3.01113 44.8183 3.23965 44.9526 3.35391L48.7419 7.35117C48.8593 7.46543 48.9599 7.70977 48.9599 7.87324" fill="#F15C22"/>
<path d="M55.346 6.06211C55.346 6.22559 55.2123 6.35566 55.0449 6.35566H52.7808C52.6134 6.35566 52.4792 6.48633 52.4792 6.6334V11.0707C52.4792 11.2342 52.3449 11.3643 52.1775 11.3643H51.3056C51.1382 11.3643 51.0039 11.2342 51.0039 11.0707V0.237891C51.0039 0.074414 51.1382 -0.0556641 51.3056 -0.0556641H55.0449C55.2123 -0.0556641 55.346 0.074414 55.346 0.237891V1.05352C55.346 1.21641 55.2123 1.33066 55.0449 1.33066H52.7808C52.6134 1.33066 52.4792 1.46133 52.4792 1.62422V4.65879C52.4792 4.82227 52.6134 4.95293 52.7808 4.95293H55.0449C55.2123 4.95293 55.346 5.08359 55.346 5.24648" fill="#F15C22"/>
<path d="M57.1582 0.237891C57.1582 0.074414 57.2919 -0.0556641 57.4599 -0.0556641H58.3318C58.4992 -0.0556641 58.6335 0.074414 58.6335 0.237891V11.0707C58.6335 11.2342 58.4992 11.3648 58.3318 11.3648H57.4599C57.2919 11.3648 57.1582 11.2342 57.1582 11.0707" fill="#F15C22"/>
<path d="M60.291 0.237891C60.291 0.074414 60.4247 -0.0556641 60.5927 -0.0556641H65.891C66.0584 -0.0556641 66.1927 0.074414 66.1927 0.237891V1.06992C66.1927 1.23281 66.0584 1.36348 65.891 1.36348H64.2815C64.1141 1.36348 63.9798 1.49414 63.9798 1.65703V11.0707C63.9798 11.2342 63.8455 11.3648 63.6775 11.3648H62.8062C62.6382 11.3648 62.5039 11.2342 62.5039 11.0707V1.65703C62.5039 1.49414 62.3696 1.36348 62.2022 1.36348H60.5927C60.4247 1.36348 60.291 1.23281 60.291 1.06992" fill="#F15C22"/>
<path d="M7.9755 20.7926C7.9761 20.4867 7.79546 20.0643 7.5841 19.8551C7.3312 19.6043 7.20475 19.4789 6.95124 19.2287C6.74049 19.0201 6.31838 18.8443 6.01671 18.8479C4.8943 18.8613 4.3337 18.8684 3.21129 18.8836C2.90962 18.8877 2.63805 19.1385 2.63805 19.4502C2.63744 21.4219 2.63684 23.3941 2.63624 25.3658C2.63624 25.6969 2.90721 25.9424 3.20828 25.9207C4.32948 25.8393 4.89009 25.8006 6.01189 25.7262C6.31357 25.7057 6.73567 25.4865 6.94703 25.2504C7.21258 24.9545 7.34505 24.8074 7.6106 24.515C7.82195 24.283 7.97309 23.8354 7.97309 23.5225C7.97429 22.4197 7.9749 21.8713 7.9755 20.7926ZM7.25533 16.2832C7.557 16.2832 7.97971 16.4543 8.16036 16.6547C9.00457 17.5271 9.42608 17.9713 10.2703 18.8607C10.481 19.0951 10.6617 19.5076 10.6611 19.8059C10.6599 21.4986 10.6581 23.192 10.6563 24.8854C10.6563 25.1936 10.475 25.6359 10.2637 25.8656C10.0342 26.1029 9.91924 26.2219 9.68982 26.4615C9.47846 26.6941 9.47846 27.0381 9.68922 27.2408C9.91864 27.4611 10.033 27.5707 10.2619 27.7887C10.4726 27.9891 10.6533 28.4068 10.6527 28.715C10.6502 31.4115 10.6478 34.1086 10.6454 36.8051C10.6448 37.091 10.3733 37.3541 10.0716 37.3957C9.44474 37.483 9.13102 37.5275 8.50419 37.6195C8.20251 37.6635 7.96165 37.4719 7.96225 37.1836C7.96406 34.9219 7.96586 32.6596 7.96767 30.3978C7.96827 30.0844 7.78763 29.6936 7.57688 29.4932C7.32397 29.2395 7.19692 29.1123 6.94402 28.8557C6.73326 28.6523 6.55262 28.4766 6.55262 28.4766C6.55262 28.4766 6.31116 28.4982 6.01008 28.5258C4.88828 28.6289 4.32828 28.6822 3.20768 28.7941C2.906 28.824 2.63504 29.1504 2.63443 29.4809C2.63383 32.3332 2.63263 35.185 2.63142 38.0373C2.63142 38.332 2.39056 38.6057 2.08949 38.6596C1.4759 38.7686 1.1688 38.8242 0.555815 38.9379C0.25474 38.9941 -0.015625 38.8102 -0.015625 38.5119V16.8158C-0.015625 16.5176 0.255944 16.2832 0.557621 16.2832" fill="white"/>
<path d="M15.3492 36.7312C15.0475 36.7652 14.806 36.5684 14.8066 36.2854C14.8127 29.7873 14.8193 23.2893 14.8259 16.7912C14.8259 16.5082 15.0674 16.2832 15.3697 16.2832H22.0975C22.3991 16.2832 22.6707 16.5076 22.6701 16.7889C22.6701 17.3514 22.6701 17.6326 22.6695 18.1957C22.6689 18.477 22.3967 18.6744 22.0957 18.6756C20.4783 18.6791 19.6696 18.682 18.0522 18.6891C17.7204 18.6908 17.479 18.9205 17.4784 19.2076C17.4766 21.007 17.4754 22.807 17.4736 24.607C17.473 24.8994 17.7144 25.1232 18.0462 25.1098C19.6642 25.043 20.4735 25.0137 22.0908 24.9604C22.3925 24.951 22.6641 25.1684 22.6641 25.4514C22.6635 26.0168 22.6635 26.2992 22.6635 26.8652C22.6629 27.1477 22.3913 27.3867 22.089 27.4014C20.4711 27.4793 19.6618 27.5227 18.0444 27.6182C17.712 27.6375 17.4706 27.8865 17.4699 28.1496C17.4687 29.9596 17.4669 31.7689 17.4651 33.5783C17.4651 33.8367 17.706 34.0418 18.0384 34.0096C19.6564 33.8555 20.4656 33.7852 22.0842 33.658C22.3865 33.6346 22.6581 33.8391 22.6581 34.1209C22.6575 34.684 22.6575 34.9652 22.6569 35.5271C22.6569 35.8084 22.3847 36.0539 22.083 36.0785C19.8346 36.2701 17.5922 36.4869 15.3492 36.7312Z" fill="white"/>
<path d="M29.3036 32.7281C29.3036 32.9783 29.5451 33.1898 29.8468 33.1758C30.9945 33.1236 31.5683 33.1008 32.7154 33.0615C33.0177 33.0516 33.4404 32.8986 33.6517 32.6982C33.9053 32.4574 34.0323 32.3373 34.2858 32.0982C34.4972 31.8996 34.6778 31.51 34.6784 31.2363C34.6784 27.6352 34.6784 24.034 34.679 20.4334C34.679 20.1867 34.4978 19.8012 34.287 19.6066C34.0335 19.3846 33.9065 19.2732 33.6536 19.05C33.4422 18.8543 33.0195 18.6855 32.7178 18.6844C31.5713 18.6797 30.9975 18.6779 29.851 18.6756C29.5499 18.6744 29.3078 18.8977 29.3078 19.1754C29.3066 23.693 29.3048 28.2105 29.3036 32.7281ZM27.1883 35.7287C26.886 35.7457 26.6445 35.5342 26.6445 35.2523C26.6475 29.0988 26.6506 22.9447 26.6536 16.7906C26.6536 16.5088 26.895 16.2832 27.1973 16.2832H33.9552C34.2569 16.2832 34.6489 16.4561 34.8603 16.657C35.7051 17.5078 36.1272 17.9297 36.972 18.7617C37.1834 18.9867 37.3339 19.377 37.3339 19.6254C37.3339 23.8441 37.3339 28.0635 37.3339 32.2822V32.7826C37.3339 32.7826 37.1532 32.9244 36.9118 33.1242C35.9941 33.9012 35.5353 34.2967 34.6176 35.0971C34.4062 35.3027 33.9528 35.4568 33.6511 35.465C31.4954 35.5283 29.3422 35.6168 27.1883 35.7287Z" fill="white"/>
<path d="M49.2504 16.7637C49.3708 16.5094 49.7327 16.2832 50.035 16.2832H51.8149C52.1166 16.2832 52.2678 16.5082 52.1467 16.7607C50.5564 20.158 48.9391 23.5418 47.2898 26.9127C47.1995 27.1541 47.079 27.5566 47.079 27.8273C47.079 30.2256 47.079 32.6238 47.0796 35.0221C47.0796 35.3051 46.8382 35.5248 46.5359 35.5154C45.9205 35.4955 45.6128 35.4867 44.9968 35.4715C44.665 35.4627 44.4236 35.2277 44.4236 34.9424C44.4236 32.5518 44.4236 30.1606 44.4236 27.7699C44.4236 27.5016 44.3326 27.0984 44.2122 26.8564C42.5719 23.5061 40.9154 20.165 39.3541 16.7789C39.2336 16.5182 39.3842 16.2832 39.6864 16.2832H41.4965C41.7982 16.2832 42.13 16.5152 42.2504 16.773C43.3216 19.0787 44.4266 21.3674 45.5399 23.6537C45.6604 23.8969 45.8717 23.898 45.962 23.6561C47.076 21.3662 48.1713 19.0688 49.2504 16.7637Z" fill="white"/>
<path d="M59.5089 26.3057C59.8106 26.3197 60.0213 26.0977 59.9918 25.8053C59.6125 23.6174 59.2301 21.4295 58.8429 19.2428C58.8128 18.9873 58.5714 18.7312 58.36 18.7307C58.1185 18.7295 57.9078 18.9838 57.8476 19.2381C57.4761 21.3826 57.1045 23.5271 56.7324 25.6717C56.6722 25.9541 56.8835 26.1896 57.1852 26.202C58.1149 26.2406 58.5792 26.2611 59.5089 26.3057ZM64.3996 36.3492C64.4598 36.6393 64.249 36.8373 63.9474 36.8016C63.3073 36.7254 62.9875 36.6891 62.348 36.6187C62.0464 36.5853 61.7742 36.3328 61.714 36.0451C61.337 33.8379 60.9655 31.6295 60.5958 29.4211C60.5356 29.1258 60.264 28.8744 59.9617 28.8545C58.6828 28.7695 58.0427 28.7309 56.7631 28.6594C56.462 28.6424 56.1598 28.8527 56.1297 29.134C55.7497 31.2387 55.3679 33.3428 54.9844 35.4463C54.9543 35.7246 54.6526 35.9273 54.3509 35.9062C53.7108 35.8623 53.3911 35.8418 52.751 35.8025C52.4493 35.7844 52.2681 35.5488 52.2982 35.2699C53.4085 29.11 54.5177 22.9494 55.6142 16.7871C55.6443 16.507 55.946 16.2832 56.2477 16.2832H60.4711C60.7734 16.2832 61.045 16.507 61.1052 16.7877C62.2457 23.3016 63.2898 29.8307 64.3996 36.3492Z" fill="white"/>
<path d="M75.3163 20.9238C75.3163 20.6057 75.135 20.1592 74.9237 19.9354C74.6701 19.667 74.5437 19.534 74.2902 19.2709C74.0788 19.0518 73.6567 18.8625 73.3551 18.8584C72.2326 18.8426 71.6714 18.8355 70.549 18.8221C70.2474 18.8186 69.9758 19.0535 69.9764 19.3535C69.9764 21.2355 69.977 23.1176 69.9776 24.9996C69.9776 25.3137 70.2492 25.5832 70.5508 25.6031C71.6726 25.6764 72.2339 25.715 73.3557 25.7971C73.6579 25.8193 74.08 25.6547 74.2908 25.4402C74.5563 25.1713 74.6888 25.0359 74.9544 24.7646C75.1657 24.549 75.3163 24.0973 75.3163 23.7697C75.3163 22.6166 75.3163 22.0447 75.3163 20.9238ZM74.5919 16.2832C74.8929 16.2832 75.3156 16.4566 75.4969 16.6617C76.3417 17.5547 76.7638 18.0187 77.6086 18.9873C77.8194 19.2416 78.0006 19.6904 78.0006 20.0109V25.5527C78.0006 25.8926 77.8194 26.3537 77.6086 26.5723C77.3798 26.7961 77.2648 26.9074 77.0354 27.1289C76.8246 27.3457 76.8246 27.7148 77.036 27.9727C77.2648 28.2527 77.3798 28.3934 77.6086 28.677C77.8194 28.9377 78.0006 29.4352 78.0006 29.7744V38.5119C78.0006 38.8102 77.7291 38.99 77.428 38.9297C76.8012 38.8049 76.4874 38.7445 75.8606 38.6262C75.5589 38.5693 75.3181 38.2928 75.3181 37.9986C75.3175 35.6566 75.3175 33.3141 75.3169 30.9721C75.3169 30.6445 75.1362 30.1945 74.9249 29.9396C74.6714 29.6209 74.5449 29.4627 74.2914 29.1475C74.0806 28.8955 73.8994 28.6811 73.8994 28.6811C73.8994 28.6811 73.6579 28.6564 73.3563 28.626C72.2345 28.5141 71.6732 28.4602 70.5514 28.3588C70.2498 28.3312 69.9782 28.5902 69.9782 28.9049C69.9788 31.6389 69.9794 34.3728 69.9806 37.1074C69.9806 37.3945 69.7391 37.5838 69.4375 37.5387C68.8221 37.4467 68.5144 37.4016 67.899 37.3148C67.5973 37.2721 67.3257 37.0096 67.3257 36.7248C67.3239 30.0809 67.3221 23.4369 67.3203 16.793C67.3203 16.5088 67.5919 16.2832 67.8936 16.2832" fill="white"/>
</g>
<defs>
<clipPath id="clip0">
<rect width="78" height="39" fill="white"/>
</clipPath>
</defs>
</svg>
