<svg width="29" height="17" viewBox="0 0 29 17" fill="none" xmlns="http://www.w3.org/2000/svg">
<path fill-rule="evenodd" clip-rule="evenodd" d="M27.6706 1.45653C27.866 0.813938 27.6706 0.34082 26.735 0.34082H23.6456C22.8594 0.34082 22.4969 0.749208 22.3004 1.19996C22.3004 1.19996 20.7292 4.96136 18.5037 7.40463C17.7834 8.11313 17.4562 8.33792 17.0631 8.33792C16.8666 8.33792 16.5712 8.11313 16.5712 7.46936V1.45653C16.5712 0.684478 16.3546 0.34082 15.7003 0.34082H10.842C10.3512 0.34082 10.0558 0.6986 10.0558 1.03873C10.0558 1.76959 11.1692 1.93906 11.2833 3.9963V8.4662C11.2833 9.44656 11.1032 9.62428 10.7102 9.62428C9.66271 9.62428 7.1147 5.84522 5.60238 1.52126C5.30933 0.67977 5.01275 0.34082 4.22304 0.34082H1.1313C0.248619 0.34082 0.0720825 0.749208 0.0720825 1.19996C0.0720825 2.00262 1.11953 5.98998 4.95037 11.2637C7.50426 14.8651 11.0997 16.8175 14.3751 16.8175C16.3393 16.8175 16.5818 16.3844 16.5818 15.6371V12.9149C16.5818 12.0475 16.7677 11.8745 17.3903 11.8745C17.8493 11.8745 18.6343 12.1005 20.4679 13.8364C22.5628 15.8948 22.9076 16.8175 24.0869 16.8175H27.1763C28.059 16.8175 28.5015 16.3844 28.2473 15.5276C27.9672 14.6756 26.9668 13.4386 25.6404 11.971C24.9202 11.1354 23.8398 10.2351 23.5114 9.78434C23.0536 9.20647 23.1842 8.94873 23.5114 8.43442C23.5114 8.43442 27.2775 3.22542 27.6694 1.45653H27.6706Z" fill="white"/>
</svg>
