<svg width="35" height="25" viewBox="0 0 51 37" fill="none" xmlns="http://www.w3.org/2000/svg">
<path d="M25.4089 36.0323C19.7905 35.8552 14.4477 35.7175 9.1048 35.5108C7.95357 35.4616 6.78266 35.2845 5.66095 35.0189C3.55529 34.5269 2.09904 33.2576 1.35123 31.1814C0.751018 29.5087 0.534548 27.7868 0.377115 26.0353C0.0327312 21.9224 0.0327311 17.8095 0.200003 13.6966C0.298399 11.3744 0.357436 9.03261 0.977328 6.77935C1.35123 5.43133 1.80385 4.11283 2.89604 3.13872C4.04727 2.10556 5.39529 1.48567 6.93026 1.4168C11.1416 1.21017 15.3431 0.954338 19.5544 0.914979C25.222 0.855942 30.8994 0.934659 36.567 1.04289C39.017 1.09209 41.4868 1.22001 43.9171 1.53487C46.1409 1.83006 47.8037 3.06984 48.6893 5.23454C49.3682 6.89743 49.6241 8.63903 49.7717 10.4101C50.1554 14.8478 50.1652 19.2854 49.9488 23.7231C49.8405 25.9763 49.7323 28.2394 49.0927 30.4336C48.3646 32.9526 46.8198 34.6154 44.2418 35.1861C43.2382 35.4026 42.1952 35.4813 41.1719 35.5207C35.8192 35.7076 30.4763 35.8749 25.4089 36.0323ZM19.9677 24.8448C24.4545 22.5226 28.8921 20.2202 33.4183 17.8685C28.902 15.507 24.4643 13.1947 19.9677 10.8431C19.9677 15.5366 19.9677 20.1513 19.9677 24.8448Z" fill="white"/>
</svg>
